<svg width="23" height="28" viewBox="0 0 23 28" fill="none" xmlns="http://www.w3.org/2000/svg">
<path d="M20.1955 0.18551C19.2184 0.26958 18.4724 1.0944 18.4866 2.07497V19.8615C18.4869 19.8658 18.4842 19.8698 18.4801 19.8712C18.4761 19.8726 18.4716 19.8712 18.4691 19.8676L3.7815 0.712917C3.20561 -0.036784 2.15244 -0.222342 1.35502 0.285401C0.821359 0.636347 0.504342 1.23596 0.51484 1.87461V25.1871C0.500375 26.1675 1.24622 26.9923 2.22318 27.0763C2.72489 27.1074 3.21717 26.9298 3.58344 26.5855C3.94975 26.2412 4.15748 25.7609 4.15748 25.2582V7.21858C4.1576 7.21447 4.16023 7.21085 4.16407 7.20949C4.16798 7.20813 4.17231 7.20932 4.17497 7.21246L18.8632 26.3666C19.4483 27.1295 20.5254 27.3068 21.3243 26.7717C21.8377 26.4171 22.14 25.8296 22.1301 25.2058V2.00362C22.1301 1.5012 21.9224 1.02083 21.5561 0.676493C21.1896 0.332016 20.6972 0.15441 20.1955 0.18551Z" fill="black"/>
</svg>
