<svg width="28" height="28" viewBox="0 0 28 28" fill="none" xmlns="http://www.w3.org/2000/svg">
<path d="M26.7013 0.194831C25.7936 -0.259629 24.6893 0.10795 24.235 1.01579L14.0791 21.3098C14.0774 21.3131 14.074 21.3153 14.0702 21.3153C14.0664 21.3153 14.063 21.3131 14.0613 21.3098L3.90546 1.01579C3.43778 0.133712 2.35145 -0.213688 1.45873 0.233345C0.566015 0.680378 0.193434 1.75833 0.619574 2.66121L12.3306 26.0646C12.6421 26.6876 13.2791 27.0809 13.9757 27.0804C14.0069 27.0804 14.0386 27.0766 14.0701 27.0751C14.1015 27.0737 14.1333 27.0804 14.1647 27.0804C14.8613 27.0809 15.4983 26.6876 15.8098 26.0646L27.5223 2.66121C27.9766 1.75343 27.609 0.649255 26.7013 0.194831Z" fill="black"/>
</svg>
