<svg width="27" height="28" viewBox="0 0 27 28" fill="none" xmlns="http://www.w3.org/2000/svg">
<path d="M24.6699 1.11456e-06H2.65854C1.67984 -0.0148596 0.856414 0.729859 0.773162 1.70512C0.742309 2.20564 0.919585 2.69668 1.26306 3.06205C1.60657 3.42743 2.08569 3.63468 2.58719 3.63477L11.8015 3.63477C11.8069 3.63492 11.8113 3.63927 11.8115 3.64467L11.8114 25.1909C11.7965 26.1694 12.541 26.9928 13.516 27.0763C14.0165 27.1071 14.5075 26.9298 14.8729 26.5864C15.2383 26.2429 15.4455 25.7637 15.4456 25.2623V3.64467C15.4456 3.63942 15.4497 3.63508 15.455 3.63477L24.5994 3.63477C25.5779 3.64932 26.401 2.90469 26.4842 1.92965C26.515 1.42908 26.3377 0.937995 25.9942 0.572612C25.6506 0.20723 25.1714 1.45846e-05 24.6699 1.11456e-06Z" fill="black"/>
</svg>
