<svg width="28" height="28" viewBox="0 0 28 28" fill="none" xmlns="http://www.w3.org/2000/svg">
<path d="M15.3868 1.01495C15.0594 0.361167 14.3756 -0.0363606 13.6455 0.00265436C12.9167 -0.0347089 12.2348 0.362535 11.9078 1.01495L0.194741 24.4192C-0.259629 25.327 0.107928 26.4312 1.0157 26.8856C1.92348 27.3399 3.02771 26.9724 3.48208 26.0646L6.35938 20.3156C6.36096 20.3122 6.36437 20.31 6.36811 20.31H20.9264C20.9302 20.31 20.9336 20.3122 20.9352 20.3156L23.8125 26.0646C24.2668 26.9723 25.371 27.3398 26.2787 26.8854C27.1864 26.4311 27.5539 25.3269 27.0995 24.4192L15.3868 1.01495ZM7.74881 17.5387L13.6385 5.77035C13.6401 5.76694 13.6435 5.76474 13.6473 5.76474C13.651 5.76474 13.6544 5.76694 13.656 5.77035L19.546 17.5387C19.5476 17.5417 19.5474 17.5453 19.5456 17.5482C19.5438 17.5511 19.5407 17.5528 19.5373 17.5527H7.75755C7.75417 17.5528 7.75101 17.5511 7.74922 17.5482C7.74743 17.5453 7.74727 17.5417 7.74881 17.5387Z" fill="black"/>
</svg>
